<?xml version="1.0" encoding="utf-8"?>
<!-- Generator: Adobe Illustrator 22.1.0, SVG Export Plug-In . SVG Version: 6.00 Build 0)  -->
<svg version="1.1" xmlns="http://www.w3.org/2000/svg" xmlns:xlink="http://www.w3.org/1999/xlink" x="0px" y="0px"
	 viewBox="0 0 1400 1200" style="enable-background:new 0 0 1400 1200;" xml:space="preserve">
<style type="text/css">
	.st0{fill:none;}
	.st1{fill:#00adb5;}
	.st2{fill:#84502C;}
	.st3{fill:#D67D41;}
	.st4{fill:#FFFFFF;}
	.st5{fill:#EAE6E4;}
	.st6{fill:#1E2635;}
	.st7{fill:#525A70;}
	.st8{fill:none;}
	.st9{fill:#187C72;}
	.st10{fill:#068296;}
	.st11{fill:#FFA608;}
	.st12{fill:#F13E31;}
	.st13{fill:#30B5AB;}
	.st14{fill:none;stroke:#525A70;stroke-width:5;stroke-miterlimit:10;}
	.st15{fill:#EAE7E4;}
	.st16{fill:#B07D57;}
</style>
<g id="BACKGROUND">
	<rect class="st0" width="1400" height="1200"/>
</g>
<g id="OBJECT">
	<g>
		<path class="st1" d="M1141.8,1039.8c67.4-84.3,107.3-188.9,107.3-302.3c0-278.9-241.4-504.9-539.1-504.9S170.9,458.6,170.9,737.4
			c0,113.4,39.9,218,107.3,302.3H1141.8z"/>
		<g>
			<path class="st2" d="M362,412l-20.3,11.5c-3.2,1.8-4.3,5.9-2.5,9.1l267.7,471.2c1.8,3.2,5.9,4.3,9.1,2.5l20.3-11.5
				c3.2-1.8,4.3-5.9,2.5-9.1L371.1,414.5C369.3,411.3,365.2,410.2,362,412z"/>
			<path class="st3" d="M351.2,418.1l-20.3,11.5c-3.2,1.8-4.3,5.9-2.5,9.1l267.7,471.2c1.8,3.2,5.9,4.3,9.1,2.5l20.3-11.5
				c3.2-1.8,4.3-5.9,2.5-9.1L360.3,420.6C358.5,417.4,354.4,416.3,351.2,418.1z"/>
			<path class="st4" d="M379.9,422l-50.8,28.9c-4.1,2.3-5.6,7.6-3.2,11.7l23.8,41.9c2.3,4.1,7.6,5.6,11.7,3.2l50.8-28.9
				c4.1-2.3,5.6-7.6,3.2-11.7l-23.8-41.9C389.2,421.1,384,419.7,379.9,422z"/>
			<path class="st5" d="M379.9,422l-9.6,5.5c2.9,2.8,5.4,6.1,7.5,9.8c12.3,21.6,4.7,49.1-16.9,61.3c-3.8,2.2-7.8,3.7-11.9,4.7
				l0.7,1.2c2.3,4.1,7.6,5.6,11.7,3.2l50.8-28.9c4.1-2.3,5.6-7.6,3.2-11.7l-23.8-41.9C389.2,421.1,384,419.7,379.9,422z"/>
			<path class="st4" d="M325.9,462.6c0,0-121.2,67.1-98,178.8l11-6.3c7.6-4.3,13.3-11.4,16.5-20.3c9.3-26.5,35.9-85.5,94.3-110.4
				C349.6,504.4,325,463.1,325.9,462.6z"/>
			<path class="st5" d="M255.4,614.8c9.3-26.5,35.9-85.5,94.3-110.4c0,0-24.7-41.4-23.8-41.9c0,0-6.3,3.5-15.7,10.2l2.3,4.1
				c7,12.4,4.2,28.1-6.8,37c-66.7,54.2-77.8,127.5-77.8,127.5l11-6.3C246.5,630.8,252.2,623.7,255.4,614.8z"/>
			<path class="st4" d="M391.2,425.4c0,0,119.7-69.8,203.8,7.4l-11,6.3c-7.6,4.3-16.6,5.6-25.9,3.8c-27.5-5.6-91.8-12.9-143.1,24.5
				C415,467.3,392.1,424.9,391.2,425.4z"/>
			<path class="st5" d="M558.1,442.8c-27.5-5.6-91.8-12.9-143.1,24.5c0,0-22.9-42.4-23.8-41.9c0,0,6.2-3.6,16.8-8.3l2.3,4.1
				c7,12.4,22,18,35.3,13.1c80.7-29.5,149.4-1.5,149.4-1.5l-11,6.3C576.4,443.4,567.3,444.7,558.1,442.8z"/>
		</g>
		<g>
			<g>
				<path class="st6" d="M1086.5,536.2H601.1c-17,0-30.8,13.8-30.8,30.8v327.8c0,17,13.8,30.8,30.8,30.8h485.4
					c17,0,30.8-13.8,30.8-30.8V567C1117.2,550,1103.5,536.2,1086.5,536.2z"/>
				<g>
					<path class="st7" d="M1055.1,536.2H569.7c-17,0-30.8,13.8-30.8,30.8v327.8c0,17,13.8,30.8,30.8,30.8h485.4
						c17,0,30.8-13.8,30.8-30.8V567C1085.8,550,1072,536.2,1055.1,536.2z"/>
					<path class="st4" d="M573.8,860.8c-4.9,0-8.9-4-8.9-8.9V569.6c0-4.9,4-8.9,8.9-8.9H1051c4.9,0,8.9,4,8.9,8.9v282.3
						c0,4.9-4,8.9-8.9,8.9H573.8z"/>
				</g>
			</g>
			<g>
				<rect x="749.7" y="925.8" class="st7" width="165.9" height="105.6"/>
				<rect x="749.7" y="925.8" class="st6" width="165.9" height="16.2"/>
				<rect x="749.7" y="980.8" class="st6" width="165.9" height="50.6"/>
				<rect x="693.5" y="996" class="st7" width="222.1" height="35.4"/>
				<polygon class="st6" points="877.6,925.8 877.6,996 834.6,996 834.6,1031.4 877.6,1031.4 915.7,1031.4 915.7,996 915.7,925.8 
									"/>
			</g>
		</g>
		<g>
			<path class="st7" d="M650.7,748.4H287c-12.7,0-23,10.3-23,23v213.7c0,12.7,10.3,23,23,23h363.6c12.7,0,23-10.3,23-23V771.5
				C673.7,758.7,663.4,748.4,650.7,748.4z"/>
			<path class="st4" d="M290.1,1000.1c-3.7,0-6.7-3-6.7-6.7v-220c0-3.7,3-6.7,6.7-6.7h357.5c3.7,0,6.7,3,6.7,6.7v220
				c0,3.7-3,6.7-6.7,6.7H290.1z"/>
		</g>
		<path class="st7" d="M673.7,987v14.3c0,14.9-12.1,26.9-26.9,26.9H223.7c-14.9,0-26.9-12.1-26.9-26.9V987h138.7
			c0.5,7.8,6.9,14,14.9,14h37.5c7.9,0,14.4-6.2,14.9-14H673.7z"/>
		<line class="st8" x1="402.7" y1="987" x2="335.5" y2="987"/>
		<path class="st6" d="M537.1,987v14.3c0,14.9-12.1,26.9-26.9,26.9h136.6c14.9,0,26.9-12.1,26.9-26.9V987H537.1z"/>
		<path class="st6" d="M1275.2,1040.9H109.7c-3.8,0-6.9-3.1-6.9-6.9l0,0c0-3.8,3.1-6.9,6.9-6.9h1165.6c3.8,0,6.9,3.1,6.9,6.9l0,0
			C1282.2,1037.8,1279,1040.9,1275.2,1040.9z"/>
		<path class="st6" d="M1005.1,213.3H698.6c-23.9,0-43.5,19.6-43.5,43.5v163.4c0,23.9,19.6,43.5,43.5,43.5H800l-22.8,49.4l94.7-49.4
			h133.2c23.9,0,43.5-19.6,43.5-43.5V256.8C1048.6,232.8,1029,213.3,1005.1,213.3z"/>
		<g>
			<path class="st9" d="M1205.3,437.7l3.1,4.9c0.7,1.1,0.3,2.5-0.7,3.2l-44.3,27.7c-1.1,0.7-2.5,0.3-3.2-0.7l-3.1-4.9
				c-0.7-1.1-0.3-2.5,0.7-3.2l44.3-27.7C1203.2,436.3,1204.6,436.6,1205.3,437.7z"/>
			<circle class="st9" cx="1168.7" cy="364.9" r="23.3"/>
			<circle class="st9" cx="1154.6" cy="473.1" r="18.4"/>
			<circle class="st10" cx="1209.8" cy="437.6" r="23.3"/>
			<circle class="st9" cx="1209.8" cy="437.6" r="11.1"/>
			<path class="st9" d="M1208.4,424.2l-4.9,3.1c-1.1,0.7-2.5,0.3-3.2-0.7l-27.7-44.3c-0.7-1.1-0.3-2.5,0.7-3.2l4.9-3.1
				c1.1-0.7,2.5-0.3,3.2,0.7l27.7,44.3C1209.8,422,1209.5,423.5,1208.4,424.2z"/>
		</g>
		<g>
			<path class="st10" d="M309.3,246.3l1.5-6.4c0.3-1.4,1.7-2.3,3.1-2l57.6,13.2c1.4,0.3,2.3,1.7,2,3.1l-1.5,6.4
				c-0.3,1.4-1.7,2.3-3.1,2l-57.6-13.2C309.9,249.2,309,247.7,309.3,246.3z"/>
			<circle class="st9" cx="280.3" cy="333.9" r="26.4"/>
			<circle class="st9" cx="378.2" cy="258.6" r="20.8"/>
			<circle class="st9" cx="305.7" cy="242.8" r="26.4"/>
			<circle class="st10" cx="305.7" cy="242.8" r="12.5"/>
			<path class="st9" d="M296,254.7l6.4,1.5c1.4,0.3,2.3,1.7,2,3.1L291.2,317c-0.3,1.4-1.7,2.3-3.1,2l-6.4-1.5
				c-1.4-0.3-2.3-1.7-2-3.1l13.2-57.6C293.2,255.3,294.6,254.4,296,254.7z"/>
		</g>
		<g>
			<g>
				<path class="st11" d="M683.9,665.7c5.1-7.5,8-16.6,8-26.4c0-26.1-21.2-47.3-47.3-47.3c-26.1,0-47.3,21.2-47.3,47.3
					c0,26.1,21.2,47.3,47.3,47.3v-37.9L683.9,665.7z"/>
				<path class="st12" d="M683.9,665.7l-39.3-16.9v37.9C661,686.7,675.4,678.4,683.9,665.7z"/>
			</g>
			<g>
				<path class="st11" d="M768.9,592.1c-26.1,0-47.3,21.2-47.3,47.3c0,26.1,21.2,47.3,47.3,47.3c14.9,0,28.2-6.9,36.9-17.7
					l-36.9-28.7V592.1z"/>
				<path class="st12" d="M816.2,639.4c0-26.1-21.2-47.3-47.3-47.3v48.2l36.9,28.7c0.8-1,1.6-2.1,2.4-3.2
					C813.2,658.2,816.2,649.1,816.2,639.4z"/>
			</g>
		</g>
		<path class="st7" d="M978.9,603.3H857.8c-2.4,0-4.3,1.9-4.3,4.3v1.1c0,2.4,1.9,4.3,4.3,4.3h121.1c2.4,0,4.3-1.9,4.3-4.3v-1.1
			C983.2,605.3,981.2,603.3,978.9,603.3z"/>
		<path class="st7" d="M443.8,798.5H322.7c-2.4,0-4.3,1.9-4.3,4.3v1.1c0,2.4,1.9,4.3,4.3,4.3h121.1c2.4,0,4.3-1.9,4.3-4.3v-1.1
			C448.1,800.4,446.1,798.5,443.8,798.5z"/>
		<path class="st7" d="M927,631.4h-69.2c-2.4,0-4.3,1.9-4.3,4.3v1.1c0,2.4,1.9,4.3,4.3,4.3H927c2.4,0,4.3-1.9,4.3-4.3v-1.1
			C931.3,633.4,929.3,631.4,927,631.4z"/>
		<path class="st7" d="M391.9,828.2h-69.2c-2.4,0-4.3,1.9-4.3,4.3v1.1c0,2.4,1.9,4.3,4.3,4.3h69.2c2.4,0,4.3-1.9,4.3-4.3v-1.1
			C396.2,830.1,394.2,828.2,391.9,828.2z"/>
		<path class="st7" d="M613.2,853h-56.5c-1.1,0-2,0.9-2,2v0.5c0,1.1,0.9,2,2,2h56.5c1.1,0,2-0.9,2-2V855
			C615.3,853.9,614.3,853,613.2,853z"/>
		<path class="st7" d="M589,867.7h-32.3c-1.1,0-2,0.9-2,2v0.5c0,1.1,0.9,2,2,2H589c1.1,0,2-0.9,2-2v-0.5
			C591,868.6,590.1,867.7,589,867.7z"/>
		<path class="st7" d="M613.2,883.2h-56.5c-1.1,0-2,0.9-2,2v0.5c0,1.1,0.9,2,2,2h56.5c1.1,0,2-0.9,2-2v-0.5
			C615.3,884.1,614.3,883.2,613.2,883.2z"/>
		<path class="st7" d="M602.1,898h-45.3c-1.1,0-2,0.9-2,2v0.5c0,1.1,0.9,2,2,2h45.3c1.1,0,2-0.9,2-2V900
			C604.1,898.9,603.2,898,602.1,898z"/>
		<path class="st7" d="M581.5,915.3h-24.8c-1.1,0-2,0.9-2,2v0.5c0,1.1,0.9,2,2,2h24.8c1.1,0,2-0.9,2-2v-0.5
			C583.5,916.2,582.6,915.3,581.5,915.3z"/>
		<rect x="316.2" y="880.6" class="st11" width="27" height="58.4"/>
		<rect x="371.3" y="863.1" class="st11" width="27" height="75.9"/>
		<rect x="423.2" y="886.9" class="st11" width="27" height="52.1"/>
		<rect x="468.6" y="910.7" class="st11" width="27" height="28.3"/>
		<path class="st7" d="M538.4,824.4v120.8h95.7V824.4H538.4z M627.8,939h-83.1V830.5h83.1V939z"/>
		<path class="st13" d="M1139.6,246.8h-20.5v-20.5c0-1.2-1-2.2-2.2-2.2h-11.1c-1.2,0-2.2,1-2.2,2.2v20.5h-20.5c-1.2,0-2.2,1-2.2,2.2
			V260c0,1.2,1,2.2,2.2,2.2h20.5v20.5c0,1.2,1,2.2,2.2,2.2h11.1c1.2,0,2.2-1,2.2-2.2v-20.5h20.5c1.2,0,2.2-1,2.2-2.2V249
			C1141.8,247.8,1140.8,246.8,1139.6,246.8z"/>
		<path class="st13" d="M392.9,657.2H372v-20.9c0-1.2-1-2.2-2.2-2.2h-11.3c-1.2,0-2.2,1-2.2,2.2v20.9h-20.9c-1.2,0-2.2,1-2.2,2.2
			v11.3c0,1.2,1,2.2,2.2,2.2h20.9v20.9c0,1.2,1,2.2,2.2,2.2h11.3c1.2,0,2.2-1,2.2-2.2v-20.9h20.9c1.2,0,2.2-1,2.2-2.2v-11.3
			C395.1,658.2,394.1,657.2,392.9,657.2z"/>
		<path class="st9" d="M1295.3,597.7h-18v-18c0-1-0.9-1.9-1.9-1.9h-9.7c-1,0-1.9,0.9-1.9,1.9v18h-18c-1,0-1.9,0.9-1.9,1.9v9.7
			c0,1,0.9,1.9,1.9,1.9h18v18c0,1,0.9,1.9,1.9,1.9h9.7c1,0,1.9-0.9,1.9-1.9v-18h18c1,0,1.9-0.9,1.9-1.9v-9.7
			C1297.2,598.5,1296.4,597.7,1295.3,597.7z"/>
		<path class="st9" d="M204.7,481.1H182v-22.7c0-1.3-1.1-2.4-2.4-2.4h-12.2c-1.3,0-2.4,1.1-2.4,2.4v22.7h-22.7
			c-1.3,0-2.4,1.1-2.4,2.4v12.2c0,1.3,1.1,2.4,2.4,2.4H165v22.7c0,1.3,1.1,2.4,2.4,2.4h12.2c1.3,0,2.4-1.1,2.4-2.4v-22.7h22.7
			c1.3,0,2.4-1.1,2.4-2.4v-12.2C207.1,482.1,206,481.1,204.7,481.1z"/>
		<polyline class="st14" points="627.5,759 665.3,720.1 732.4,825 792.9,753.6 838.3,796.8 903.7,717.9 939.9,755.8 		"/>
		<g>
			<path class="st15" d="M883.7,860.8H1051c4.9,0,8.9-4,8.9-8.9V671.4H933h0c-15.3,0-27.8,12.4-27.8,27.8v11.4v64.7v40.4h-9
				c-13.4,0-24.3,10.9-24.3,24.3C872,848.8,876.7,856.6,883.7,860.8z"/>
			<path class="st15" d="M883.7,860.8c-7-4.3-11.7-12-11.7-20.8v20.8H883.7z"/>
		</g>
		<g>
			<polyline class="st11" points="1191.5,931 1191.5,920.2 1183.2,920.2 1175.9,932.7 1191.1,935.8 			"/>
			<path class="st12" d="M1183.1,911.8H1106v16.9h77.1c4.7,0,8.5-3.8,8.5-8.5v0C1191.5,915.6,1187.8,911.8,1183.1,911.8z"/>
			<path class="st2" d="M1153.3,821.9H914.8c-11.6,0-21,9.4-21,21s9.4,21,21,21H1106l-1.2,0.4l69.4,87.8V842.9
				C1174.3,831.3,1164.9,821.9,1153.3,821.9z"/>
			<g>
				<path class="st16" d="M914.8,864c-11.6,0-21-9.4-21-21v21H914.8z"/>
				<path class="st2" d="M1134.5,864h-39.3c22,0,39.8,17.8,39.8,39.8v101.5c0,11.6-9.4,21-21,21h39.3c11.6,0,21-9.4,21-21V903.8
					C1174.3,881.8,1156.5,864,1134.5,864z"/>
			</g>
			<path class="st4" d="M946.6,697L946.6,697c-13.3,0-24,10.8-24,24v9.9v56V864h201.1V730.9l0,0l24,7V697H946.6z"/>
			<path class="st7" d="M1091.1,751.3H960.3c-2.4,0-4.3,1.9-4.3,4.3v1.1c0,2.4,1.9,4.3,4.3,4.3h130.8c2.4,0,4.3-1.9,4.3-4.3v-1.1
				C1095.5,753.2,1093.5,751.3,1091.1,751.3z"/>
			<path class="st7" d="M1091.1,785.3H960.3c-2.4,0-4.3,1.9-4.3,4.3v1.1c0,2.4,1.9,4.3,4.3,4.3h130.8c2.4,0,4.3-1.9,4.3-4.3v-1.1
				C1095.5,787.3,1093.5,785.3,1091.1,785.3z"/>
			<path class="st7" d="M1046.6,819.2h-86.3c-2.4,0-4.3,1.9-4.3,4.3v1.1c0,2.4,1.9,4.3,4.3,4.3h86.3c2.4,0,4.3-1.9,4.3-4.3v-1.1
				C1050.9,821.1,1049,819.2,1046.6,819.2z"/>
			<path class="st15" d="M1147.6,697L1147.6,697c-13.3,0-24,10.8-24,24v55.3h48.1V721C1171.6,707.8,1160.8,697,1147.6,697z"/>
			<path class="st3" d="M1174.3,903.8v101.5c0,11.6-9.4,21-21,21H914.8c-11.6,0-21-9.4-21-21V842.9c0,11.6,9.4,21,21,21h219.7
				C1156.5,864,1174.3,881.8,1174.3,903.8z"/>
			<path class="st11" d="M1191.5,928.8H1110c-12.3,0-22.3,10-22.3,22.3v0c0,12.3,10,22.3,22.3,22.3h63.9c9.8,0,17.7-7.9,17.7-17.7
				V928.8z"/>
			<circle class="st12" cx="1111.1" cy="953.1" r="11"/>
		</g>
		<path class="st7" d="M982.4,213.3H675.9c-23.9,0-43.5,19.6-43.5,43.5v163.4c0,23.9,19.6,43.5,43.5,43.5h101.4v49.4l71.9-49.4
			h133.2c23.9,0,43.5-19.6,43.5-43.5V256.8C1025.9,232.8,1006.3,213.3,982.4,213.3z"/>
		<circle class="st13" cx="520.5" cy="340.9" r="20"/>
		<circle class="st13" cx="1163.4" cy="558.5" r="17.4"/>
		<path class="st9" d="M592.2,159.1c-13.7,0-24.8,11.1-24.8,24.8s11.1,24.8,24.8,24.8s24.8-11.1,24.8-24.8S605.8,159.1,592.2,159.1z
			 M592.2,197.5c-7.6,0-13.7-6.1-13.7-13.7c0-7.6,6.1-13.7,13.7-13.7c7.6,0,13.7,6.1,13.7,13.7C605.8,191.4,599.7,197.5,592.2,197.5
			z"/>
		<path class="st13" d="M1238.2,733.1c-19.1,0-34.6,15.5-34.6,34.6s15.5,34.6,34.6,34.6s34.6-15.5,34.6-34.6
			S1257.4,733.1,1238.2,733.1z M1238.2,782.5c-8.1,0-14.7-6.6-14.7-14.7c0-8.1,6.6-14.7,14.7-14.7c8.1,0,14.7,6.6,14.7,14.7
			C1253,775.9,1246.4,782.5,1238.2,782.5z"/>
		<path class="st9" d="M510.5,474.2c-13,0-23.5,10.5-23.5,23.5c0,13,10.5,23.5,23.5,23.5s23.5-10.5,23.5-23.5
			C534,484.7,523.5,474.2,510.5,474.2z M510.5,507.3c-5.3,0-9.5-4.3-9.5-9.5c0-5.3,4.3-9.5,9.5-9.5c5.3,0,9.5,4.3,9.5,9.5
			C520.1,503,515.8,507.3,510.5,507.3z"/>
		<g>
			<path class="st4" d="M944.3,266.9H698.4c-1.8,0-3.3,1.5-3.3,3.3v8.3c0,1.8,1.5,3.3,3.3,3.3h245.9c1.8,0,3.3-1.5,3.3-3.3v-8.3
				C947.7,268.4,946.2,266.9,944.3,266.9z"/>
			<path class="st4" d="M880,324H697.6c-1.4,0-2.6,1.2-2.6,2.6v9.8c0,1.4,1.2,2.6,2.6,2.6H880c1.4,0,2.6-1.2,2.6-2.6v-9.8
				C882.6,325.1,881.5,324,880,324z"/>
			<path class="st4" d="M930.8,380.2H697.6c-1.4,0-2.6,1.2-2.6,2.6v9.8c0,1.4,1.2,2.6,2.6,2.6h233.2c1.4,0,2.6-1.2,2.6-2.6v-9.8
				C933.4,381.4,932.3,380.2,930.8,380.2z"/>
		</g>
		<g>
			<path class="st6" d="M276,654.9H159.9c-14.2,0-25.8,11.6-25.8,25.8v231.9c0,14.2,11.6,25.8,25.8,25.8H276
				c14.2,0,25.8-11.6,25.8-25.8V680.7C301.9,666.5,290.2,654.9,276,654.9z"/>
			<g>
				<path class="st7" d="M259.5,654.9H143.4c-14.2,0-25.8,11.6-25.8,25.8v231.9c0,14.2,11.6,25.8,25.8,25.8h116.1
					c14.2,0,25.8-11.6,25.8-25.8V680.7C285.3,666.5,273.7,654.9,259.5,654.9z"/>
				<path class="st4" d="M125.5,887.7V687.6c0-4.8,3.9-8.6,8.6-8.6h134.7c4.8,0,8.6,3.9,8.6,8.6v200.1c0,4.8-3.9,8.6-8.6,8.6H134.1
					C129.4,896.4,125.5,892.5,125.5,887.7z"/>
			</g>
			<g>
				<rect x="174" y="707.8" class="st11" width="17.8" height="72.3"/>
				<rect x="208.2" y="730.5" class="st12" width="17.8" height="49.6"/>
				<rect x="143.6" y="746" class="st12" width="17.8" height="34.1"/>
				<rect x="238.1" y="753.1" class="st11" width="17.8" height="26.9"/>
			</g>
			<path class="st7" d="M251.5,803.8H145.8c-2.1,0-3.8,1.7-3.8,3.8v0.9c0,2.1,1.7,3.8,3.8,3.8h105.8c2.1,0,3.8-1.7,3.8-3.8v-0.9
				C255.3,805.5,253.6,803.8,251.5,803.8z"/>
			<path class="st7" d="M206.2,826.7h-60.4c-2.1,0-3.8,1.7-3.8,3.8v0.9c0,2.1,1.7,3.8,3.8,3.8h60.4c2.1,0,3.8-1.7,3.8-3.8v-0.9
				C210,828.4,208.3,826.7,206.2,826.7z"/>
			<path class="st7" d="M232.6,850.1h-86.8c-2.1,0-3.8,1.7-3.8,3.8v0.9c0,2.1,1.7,3.8,3.8,3.8h86.8c2.1,0,3.8-1.7,3.8-3.8v-0.9
				C236.4,851.8,234.7,850.1,232.6,850.1z"/>
			<circle class="st6" cx="198.1" cy="916.1" r="10.3"/>
		</g>
	</g>
</g>
</svg>
